<svg width="50" height="55" viewBox="0 0 50 55" fill="none" xmlns="http://www.w3.org/2000/svg">
<path d="M50 25.6068C50 23.0856 48.8759 20.9079 47.2222 19.7257V3.4153C47.2222 2.48172 46.6163 0 44.4444 0C43.8264 0 43.2127 0.253934 42.7101 0.748998L35.329 8.00745C31.6215 11.65 26.967 13.6569 22.2222 13.6569H5.55556C2.48698 13.6569 0 16.7137 0 20.4854L0 30.7281C0 34.4998 2.48698 37.5566 5.55556 37.5566H8.4809C8.36024 38.6747 8.29167 39.8121 8.29167 40.9708C8.29167 45.2141 9.09549 49.2237 10.5104 52.8076C10.9609 53.9481 11.9444 54.6278 12.9757 54.6278H19.4236C21.6849 54.6278 23.0425 51.444 21.6719 49.2333C20.2483 46.9372 19.4019 44.0735 19.4019 40.9708C19.4019 39.7854 19.5425 38.6459 19.7847 37.5566H22.2222C26.967 37.5566 31.6215 39.5635 35.3281 43.2061L42.7092 50.4645C43.2015 50.9487 43.8131 51.2129 44.4436 51.2135C46.6068 51.2135 47.2214 48.783 47.2214 47.7993V31.4889C48.8759 30.3056 50 28.128 50 25.6068ZM41.6667 40.6956L38.7977 37.8745C34.1102 33.2653 28.2222 30.7281 22.2222 30.7281V20.4854C28.2222 20.4854 34.1102 17.9482 38.7977 13.339L41.6667 10.518V40.6956Z" fill="#9C100E"/>
</svg>
