<svg width="30" height="60" viewBox="0 0 30 60" fill="none" xmlns="http://www.w3.org/2000/svg">
<path d="M11.6667 37.1421V55.5046L13.9604 59.3742C14.4552 60.2086 15.5458 60.2086 16.0406 59.3742L18.3333 55.5046V37.1421C17.251 37.3671 16.1396 37.5007 15 37.5007C13.8604 37.5007 12.749 37.3671 11.6667 37.1421ZM15 0C6.71562 0 0 7.55523 0 16.8753C0 26.1954 6.71562 33.7507 15 33.7507C23.2844 33.7507 30 26.1954 30 16.8753C30 7.55523 23.2844 0 15 0ZM15 8.90642C11.0938 8.90642 7.91667 12.4807 7.91667 16.8753C7.91667 17.6511 7.35625 18.2816 6.66667 18.2816C5.97708 18.2816 5.41667 17.6511 5.41667 16.8753C5.41667 10.9303 9.71667 6.09387 15 6.09387C15.6896 6.09387 16.25 6.72435 16.25 7.50015C16.25 8.27594 15.6896 8.90642 15 8.90642Z" fill="#9C100E"/>
</svg>
