<svg width="30" height="29" viewBox="0 0 30 29" fill="none" xmlns="http://www.w3.org/2000/svg">
<path d="M28.7023 24.8471L23.0663 19.2835C22.8119 19.0324 22.4671 18.8929 22.1053 18.8929H21.1838C22.7441 16.923 23.6711 14.4453 23.6711 11.75C23.6711 5.3382 18.4082 0.142883 11.913 0.142883C5.4177 0.142883 0.154785 5.3382 0.154785 11.75C0.154785 18.1619 5.4177 23.3572 11.913 23.3572C14.6434 23.3572 17.1533 22.442 19.1488 20.9018V21.8114C19.1488 22.1686 19.2901 22.509 19.5445 22.7601L25.1805 28.3237C25.7119 28.8482 26.5711 28.8482 27.0968 28.3237L28.6966 26.7444C29.228 26.2199 29.228 25.3717 28.7023 24.8471ZM11.913 18.8929C7.91632 18.8929 4.67716 15.7009 4.67716 11.75C4.67716 7.80471 7.91066 4.60717 11.913 4.60717C15.9096 4.60717 19.1488 7.79913 19.1488 11.75C19.1488 15.6953 15.9153 18.8929 11.913 18.8929Z" fill="#C64643"/>
</svg>
