<svg width="178" height="181" viewBox="0 0 178 181" fill="none" xmlns="http://www.w3.org/2000/svg">
<path d="M162.347 58.6696C159.675 52.3023 153.877 48.2671 147.491 47.4358L130.204 6.24395C129.215 3.8862 124.704 -1.59204 117.962 1.23728C116.043 2.04243 114.407 3.48323 113.372 5.38826L98.153 33.3348C90.5052 47.3638 78.184 58.4958 63.4555 64.6769L11.7198 86.3887C2.1945 90.3862 -2.28562 101.346 1.71185 110.871L12.5678 136.739C16.5652 146.264 27.525 150.744 37.0503 146.747L46.131 142.936C46.9415 145.917 47.9341 148.879 49.1622 151.805C53.6595 162.522 60.4043 171.601 68.5949 178.808C71.2022 181.102 74.9755 181.537 78.1767 180.194L98.1919 171.794C105.211 168.848 106.051 159.039 99.4534 155.241C92.6007 151.297 86.9384 145.168 83.65 137.332C82.3936 134.338 81.6224 131.277 81.2196 128.211L88.786 125.035C103.514 118.854 120.09 117.859 135.456 122.23L166.061 130.945C168.102 131.527 170.281 131.397 172.239 130.578C178.954 127.76 178.285 120.821 177.243 118.336L159.956 77.1445C163.838 72.0009 165.019 65.0369 162.347 58.6696ZM152.471 107.632L140.576 104.245C121.14 98.711 100.174 99.9737 81.5487 107.79L70.6928 81.9221C89.3176 74.1058 104.906 60.0278 114.571 42.2808L120.487 31.419L152.471 107.632Z" fill="#9C100E"/>
</svg>
