<svg width="55" height="55" viewBox="0 0 55 55" fill="none" xmlns="http://www.w3.org/2000/svg">
<path d="M55 13.75V49.1071C55 52.3605 52.6904 55 49.8438 55H5.15625C2.30957 55 0 52.3605 0 49.1071V13.75C0 10.4967 2.30957 7.85714 5.15625 7.85714H14.6094L15.9307 3.81808C16.6826 1.52232 18.6055 0 20.7539 0H34.2354C36.3838 0 38.3066 1.52232 39.0586 3.81808L40.3906 7.85714H49.8438C52.6904 7.85714 55 10.4967 55 13.75ZM40.3906 31.4286C40.3906 23.3013 34.6113 16.6964 27.5 16.6964C20.3887 16.6964 14.6094 23.3013 14.6094 31.4286C14.6094 39.5558 20.3887 46.1607 27.5 46.1607C34.6113 46.1607 40.3906 39.5558 40.3906 31.4286ZM36.9531 31.4286C36.9531 37.3828 32.71 42.2321 27.5 42.2321C22.29 42.2321 18.0469 37.3828 18.0469 31.4286C18.0469 25.4743 22.29 20.625 27.5 20.625C32.71 20.625 36.9531 25.4743 36.9531 31.4286Z" fill="#9C100E"/>
</svg>
