<svg width="40" height="32" viewBox="0 0 40 32" fill="none" xmlns="http://www.w3.org/2000/svg">
<path d="M35.35 7.97497C35.375 8.32495 35.375 8.67501 35.375 9.025C35.375 19.6999 27.2501 32 12.4 32C7.82499 32 3.57502 30.6749 0 28.375C0.650024 28.45 1.27496 28.475 1.94999 28.475C5.72494 28.475 9.19999 27.2 11.975 25.025C8.42499 24.95 5.44998 22.625 4.42496 19.425C4.92501 19.4999 5.42497 19.55 5.95002 19.55C6.675 19.55 7.40005 19.4499 8.07501 19.275C4.37502 18.5249 1.59993 15.275 1.59993 11.35V11.25C2.67489 11.85 3.925 12.225 5.2499 12.275C3.0749 10.8249 1.64995 8.34996 1.64995 5.54994C1.64995 4.04997 2.04988 2.67497 2.74992 1.47496C6.72494 6.37496 12.7 9.57491 19.3999 9.92496C19.2749 9.32496 19.1999 8.70002 19.1999 8.07501C19.1999 3.62496 22.7999 0 27.2749 0C29.5999 0 31.6999 0.974998 33.1749 2.55C34.9999 2.20002 36.7499 1.52498 38.2999 0.600004C37.6999 2.47505 36.4249 4.05005 34.7499 5.04998C36.3749 4.87506 37.9499 4.42496 39.3999 3.80003C38.3001 5.39996 36.925 6.8249 35.35 7.97497Z" fill="white"/>
</svg>
