<svg width="190" height="43" viewBox="0 0 190 43" fill="none" xmlns="http://www.w3.org/2000/svg">
<path d="M11.716 2.288C11.716 4.51733 10.968 8.888 9.472 15.4C11.232 14.1387 12.816 13.508 14.224 13.508C15.6613 13.508 16.8787 14.1093 17.876 15.312C18.9027 16.4853 19.416 18.2893 19.416 20.724C19.416 24.8013 18.6093 27.9547 16.996 30.184C15.412 32.4133 13.476 33.528 11.188 33.528C10.3373 33.528 9.472 33.4253 8.592 33.22C7.74133 33.0147 7.096 32.7947 6.656 32.56L5.996 32.252C4.11867 32.8973 2.28533 33.22 0.496 33.22C0.32 33.0733 0.232 32.3693 0.232 31.108C0.232 29.8173 1.05333 25.5933 2.696 18.436C4.33867 11.2493 5.16 6.336 5.16 3.696C5.16 3.22667 5.08667 2.62533 4.94 1.892C7.228 1.1 9.41333 0.703999 11.496 0.703999C11.6427 1.11467 11.716 1.64267 11.716 2.288ZM11.32 17.248C10.7627 17.248 9.92667 17.512 8.812 18.04C7.46267 23.7307 6.72933 27.808 6.612 30.272C7.492 30.6533 8.328 30.844 9.12 30.844C10.2347 30.844 11.1587 29.8173 11.892 27.764C12.6547 25.7107 13.036 23.452 13.036 20.988C13.036 18.4947 12.464 17.248 11.32 17.248ZM21.8126 29.7C21.8126 28.4387 22.194 26.2973 22.9566 23.276C23.7193 20.2253 24.1006 18.3627 24.1006 17.688C24.1006 16.984 23.5726 16.06 22.5166 14.916L22.5606 14.344C24.5553 13.9333 27.1806 13.728 30.4366 13.728C30.5833 14.1093 30.6566 14.7987 30.6566 15.796C30.6566 16.7933 30.246 18.92 29.4246 22.176C28.6033 25.432 28.1926 27.456 28.1926 28.248C28.1926 29.04 28.486 29.436 29.0726 29.436C29.9233 29.436 30.906 29.128 32.0206 28.512C32.138 27.808 32.4313 26.4587 32.9006 24.464C33.9566 19.7707 34.4846 16.412 34.4846 14.388C35.5113 13.9773 37.3593 13.772 40.0286 13.772H40.8646C40.8646 15.1507 40.454 17.8493 39.6326 21.868C38.8113 25.8573 38.4006 28.204 38.4006 28.908C38.4006 29.5827 38.5473 29.92 38.8406 29.92C39.0166 29.92 39.8526 29.568 41.3486 28.864L42.1846 30.272C39.574 32.4427 37.286 33.528 35.3206 33.528C34.382 33.528 33.5753 33.264 32.9006 32.736C32.2553 32.208 31.8886 31.5187 31.8006 30.668C29.4246 32.604 27.2686 33.572 25.3326 33.572C24.306 33.572 23.4553 33.2347 22.7806 32.56C22.1353 31.8853 21.8126 30.932 21.8126 29.7ZM44.2977 33.132H43.9897C43.931 32.8973 43.9017 32.3693 43.9017 31.548C43.9017 30.6973 44.2977 28.4387 45.0897 24.772C45.8817 21.1053 46.2777 19.008 46.2777 18.48C46.2777 17.5707 45.867 16.5733 45.0457 15.488L44.6497 14.96L44.6937 14.388C46.2777 13.948 48.815 13.728 52.3057 13.728C52.6577 14.4907 52.8337 15.5613 52.8337 16.94C53.1563 16.412 53.831 15.708 54.8577 14.828C55.8843 13.948 56.9403 13.508 58.0257 13.508C59.6097 13.508 60.4017 14.8867 60.4017 17.644C60.255 17.82 60.0497 18.0547 59.7857 18.348C59.551 18.612 59.0523 18.9933 58.2897 19.492C57.5563 19.9907 56.8377 20.2987 56.1337 20.416C56.1043 20.416 55.855 20.02 55.3857 19.228C54.9163 18.436 54.5643 18.04 54.3297 18.04C53.5963 18.304 52.951 18.744 52.3937 19.36C51.0443 25.432 50.3697 29.3627 50.3697 31.152C50.3697 31.7973 50.3843 32.252 50.4137 32.516C49.387 32.9267 47.3483 33.132 44.2977 33.132ZM72.557 14.784C72.6157 14.7253 72.777 14.344 73.041 13.64C74.4197 13.64 76.2677 14.0507 78.585 14.872C77.8517 17.3067 77.265 19.8587 76.825 22.528C76.385 25.168 76.165 27.06 76.165 28.204C76.165 29.3187 76.2823 29.876 76.517 29.876C76.693 29.876 77.3383 29.5973 78.453 29.04L78.981 28.776L79.773 30.316C79.509 30.5507 79.157 30.844 78.717 31.196C78.3063 31.548 77.5143 32.032 76.341 32.648C75.1677 33.2347 74.1117 33.528 73.173 33.528C71.3543 33.528 70.2983 32.7067 70.005 31.064C68.1277 32.7067 66.4263 33.528 64.901 33.528C63.405 33.528 62.129 32.9413 61.073 31.768C60.0463 30.5947 59.533 28.7467 59.533 26.224C59.533 22.2933 60.3397 19.1987 61.953 16.94C63.5663 14.652 65.517 13.508 67.805 13.508C69.4477 13.508 71.0317 13.9333 72.557 14.784ZM67.541 29.788C68.245 29.788 69.037 29.5093 69.917 28.952C70.1223 24.816 70.8117 20.724 71.985 16.676C71.105 16.2947 70.357 16.104 69.741 16.104C68.685 16.104 67.7757 17.1453 67.013 19.228C66.2797 21.2813 65.913 23.5547 65.913 26.048C65.913 28.5413 66.4557 29.788 67.541 29.788ZM89.7376 42.856C89.5616 42.504 89.4736 41.7707 89.4736 40.656C89.4736 39.5413 89.987 36.4173 91.0136 31.284C89.1656 32.78 87.4643 33.528 85.9096 33.528C84.355 33.528 83.0936 32.912 82.1256 31.68C81.1576 30.448 80.6736 28.6147 80.6736 26.18C80.6736 22.1027 81.495 18.9787 83.1376 16.808C84.7803 14.608 86.7456 13.508 89.0336 13.508C90.2656 13.508 91.747 13.8453 93.4776 14.52C94.9443 13.992 96.8216 13.728 99.1096 13.728C99.1976 14.256 99.2416 14.8573 99.2416 15.532C99.2416 18.7293 98.6696 23.2027 97.5256 28.952C96.411 34.7013 95.8536 38.94 95.8536 41.668C94.2696 42.3133 92.231 42.7093 89.7376 42.856ZM90.9696 16.104C89.855 16.104 88.9163 17.0867 88.1536 19.052C87.4203 20.988 87.0536 23.2613 87.0536 25.872C87.0536 28.4827 87.611 29.788 88.7256 29.788C89.723 29.788 90.6616 29.4067 91.5416 28.644C92.539 23.5987 93.0376 19.58 93.0376 16.588C92.2163 16.2653 91.527 16.104 90.9696 16.104ZM101.563 29.7C101.563 28.4387 101.944 26.2973 102.707 23.276C103.469 20.2253 103.851 18.3627 103.851 17.688C103.851 16.984 103.323 16.06 102.267 14.916L102.311 14.344C104.305 13.9333 106.931 13.728 110.187 13.728C110.333 14.1093 110.407 14.7987 110.407 15.796C110.407 16.7933 109.996 18.92 109.175 22.176C108.353 25.432 107.943 27.456 107.943 28.248C107.943 29.04 108.236 29.436 108.823 29.436C109.673 29.436 110.656 29.128 111.771 28.512C111.888 27.808 112.181 26.4587 112.651 24.464C113.707 19.7707 114.235 16.412 114.235 14.388C115.261 13.9773 117.109 13.772 119.779 13.772H120.615C120.615 15.1507 120.204 17.8493 119.383 21.868C118.561 25.8573 118.151 28.204 118.151 28.908C118.151 29.5827 118.297 29.92 118.591 29.92C118.767 29.92 119.603 29.568 121.099 28.864L121.935 30.272C119.324 32.4427 117.036 33.528 115.071 33.528C114.132 33.528 113.325 33.264 112.651 32.736C112.005 32.208 111.639 31.5187 111.551 30.668C109.175 32.604 107.019 33.572 105.083 33.572C104.056 33.572 103.205 33.2347 102.531 32.56C101.885 31.8853 101.563 30.932 101.563 29.7ZM122.992 25.388C122.992 21.7213 124.092 18.832 126.292 16.72C128.521 14.5787 131.044 13.508 133.86 13.508C135.59 13.508 137.013 13.9333 138.128 14.784C139.242 15.6347 139.8 16.7787 139.8 18.216C139.8 19.624 139.433 20.812 138.7 21.78C137.996 22.748 137.13 23.496 136.104 24.024C134.021 25.0507 132.114 25.696 130.384 25.96L129.328 26.092C129.533 28.8493 130.662 30.228 132.716 30.228C133.42 30.228 134.168 30.052 134.96 29.7C135.752 29.348 136.368 28.996 136.808 28.644L137.468 28.116L138.524 29.524C138.289 29.8467 137.82 30.272 137.116 30.8C136.412 31.328 135.752 31.768 135.136 32.12C133.434 33.0587 131.572 33.528 129.548 33.528C127.524 33.528 125.925 32.8093 124.752 31.372C123.578 29.9347 122.992 27.94 122.992 25.388ZM129.284 23.936C130.78 23.672 131.968 23.0413 132.848 22.044C133.728 21.0467 134.168 19.756 134.168 18.172C134.168 16.588 133.698 15.796 132.76 15.796C131.645 15.796 130.78 16.7493 130.164 18.656C129.577 20.5333 129.284 22.2933 129.284 23.936ZM149.85 16.236C149.85 17.468 149.454 19.5947 148.662 22.616C147.87 25.608 147.474 27.5733 147.474 28.512C147.474 29.4213 147.606 29.876 147.87 29.876C148.046 29.876 148.721 29.5973 149.894 29.04L150.422 28.776L151.17 30.316C150.906 30.5507 150.554 30.844 150.114 31.196C149.674 31.548 148.853 32.032 147.65 32.648C146.447 33.2347 145.333 33.528 144.306 33.528C143.279 33.528 142.473 33.22 141.886 32.604C141.299 31.9587 141.006 31.108 141.006 30.052C141.006 28.9667 141.373 27.06 142.106 24.332C142.839 21.5747 143.206 19.7853 143.206 18.964C143.206 17.732 142.825 16.5733 142.062 15.488L141.666 14.96L141.71 14.388C143.265 13.948 145.787 13.728 149.278 13.728C149.659 14.168 149.85 15.004 149.85 16.236ZM144.834 8.932C144.247 8.34533 143.954 7.568 143.954 6.6C143.954 5.632 144.35 4.78133 145.142 4.048C145.963 3.31467 146.902 2.948 147.958 2.948C149.014 2.948 149.835 3.24133 150.422 3.828C151.009 4.41467 151.302 5.192 151.302 6.16C151.302 7.09867 150.877 7.93467 150.026 8.668C149.205 9.40133 148.281 9.768 147.254 9.768C146.227 9.768 145.421 9.48933 144.834 8.932ZM153.61 33.132H153.302C153.243 32.8973 153.214 32.3693 153.214 31.548C153.214 30.6973 153.61 28.4387 154.402 24.772C155.194 21.1053 155.59 19.008 155.59 18.48C155.59 17.5707 155.179 16.5733 154.358 15.488L153.962 14.96L154.006 14.388C155.59 13.948 158.127 13.728 161.618 13.728C161.97 14.4907 162.146 15.5613 162.146 16.94C162.469 16.412 163.143 15.708 164.17 14.828C165.197 13.948 166.253 13.508 167.338 13.508C168.922 13.508 169.714 14.8867 169.714 17.644C169.567 17.82 169.362 18.0547 169.098 18.348C168.863 18.612 168.365 18.9933 167.602 19.492C166.869 19.9907 166.15 20.2987 165.446 20.416C165.417 20.416 165.167 20.02 164.698 19.228C164.229 18.436 163.877 18.04 163.642 18.04C162.909 18.304 162.263 18.744 161.706 19.36C160.357 25.432 159.682 29.3627 159.682 31.152C159.682 31.7973 159.697 32.252 159.726 32.516C158.699 32.9267 156.661 33.132 153.61 33.132ZM181.87 14.784C181.928 14.7253 182.09 14.344 182.354 13.64C183.732 13.64 185.58 14.0507 187.898 14.872C187.164 17.3067 186.578 19.8587 186.138 22.528C185.698 25.168 185.478 27.06 185.478 28.204C185.478 29.3187 185.595 29.876 185.83 29.876C186.006 29.876 186.651 29.5973 187.766 29.04L188.294 28.776L189.086 30.316C188.822 30.5507 188.47 30.844 188.03 31.196C187.619 31.548 186.827 32.032 185.654 32.648C184.48 33.2347 183.424 33.528 182.486 33.528C180.667 33.528 179.611 32.7067 179.318 31.064C177.44 32.7067 175.739 33.528 174.214 33.528C172.718 33.528 171.442 32.9413 170.386 31.768C169.359 30.5947 168.846 28.7467 168.846 26.224C168.846 22.2933 169.652 19.1987 171.266 16.94C172.879 14.652 174.83 13.508 177.118 13.508C178.76 13.508 180.344 13.9333 181.87 14.784ZM176.854 29.788C177.558 29.788 178.35 29.5093 179.23 28.952C179.435 24.816 180.124 20.724 181.298 16.676C180.418 16.2947 179.67 16.104 179.053 16.104C177.998 16.104 177.088 17.1453 176.326 19.228C175.592 21.2813 175.226 23.5547 175.226 26.048C175.226 28.5413 175.768 29.788 176.854 29.788Z" fill="white"/>
</svg>
