<svg width="36" height="36" viewBox="0 0 36 36" fill="none" xmlns="http://www.w3.org/2000/svg">
<path d="M22.9865 13.5137C27.1 17.6314 27.0435 24.2332 23.0113 28.2877C23.0037 28.296 22.9948 28.3049 22.9865 28.3132L18.3599 32.9398C14.2793 37.0204 7.64043 37.0198 3.56045 32.9398C-0.520151 28.8599 -0.520151 22.2202 3.56045 18.1403L6.11511 15.5856C6.79257 14.9082 7.95927 15.3584 7.99424 16.3158C8.03886 17.536 8.25765 18.7618 8.66138 19.9455C8.79811 20.3464 8.70041 20.7898 8.40093 21.0892L7.49992 21.9902C5.57039 23.9198 5.50987 27.0616 7.4204 29.0099C9.34978 30.9775 12.521 30.9892 14.4652 29.0451L19.0918 24.4192C21.0327 22.4783 21.0246 19.3412 19.0918 17.4084C18.837 17.1541 18.5803 16.9565 18.3798 16.8185C18.238 16.7211 18.1209 16.5919 18.0379 16.4412C17.9548 16.2905 17.9081 16.1225 17.9016 15.9506C17.8743 15.2231 18.1321 14.4734 18.7069 13.8985L20.1565 12.4489C20.5366 12.0688 21.1329 12.0222 21.5736 12.3298C22.0784 12.6822 22.5512 13.0784 22.9865 13.5137ZM32.6896 3.81024C28.6096 -0.269804 21.9707 -0.270355 17.8901 3.81024L13.2635 8.43679C13.2552 8.44505 13.2463 8.454 13.2387 8.46226C9.20658 12.5168 9.15006 19.1186 13.2635 23.2363C13.6988 23.6716 14.1716 24.0677 14.6763 24.4202C15.1171 24.7278 15.7134 24.681 16.0935 24.301L17.543 22.8514C18.1179 22.2765 18.3756 21.5268 18.3484 20.7993C18.3418 20.6274 18.2951 20.4594 18.2121 20.3087C18.129 20.158 18.0119 20.0288 17.8701 19.9314C17.6696 19.7934 17.4129 19.5958 17.1581 19.3415C15.2254 17.4087 15.2173 14.2716 17.1581 12.3307L21.7847 7.70487C23.7289 5.76069 26.9001 5.77239 28.8295 7.73999C30.7401 9.68837 30.6796 12.8302 28.75 14.7597L27.849 15.6607C27.5495 15.9602 27.4518 16.4036 27.5886 16.8044C27.9923 17.9881 28.2111 19.214 28.2557 20.4341C28.2907 21.3915 29.4574 21.8417 30.1348 21.1643L32.6895 18.6096C36.7702 14.5298 36.7702 7.89014 32.6896 3.81024Z" fill="#9C100E"/>
</svg>
