<svg width="190" height="43" viewBox="0 0 190 43" fill="none" xmlns="http://www.w3.org/2000/svg">
<path d="M11.716 1.77366C11.716 4.00299 10.968 8.37366 9.472 14.8857C11.232 13.6243 12.816 12.9937 14.224 12.9937C15.6613 12.9937 16.8787 13.595 17.876 14.7977C18.9027 15.971 19.416 17.775 19.416 20.2097C19.416 24.287 18.6093 27.4403 16.996 29.6697C15.412 31.899 13.476 33.0137 11.188 33.0137C10.3373 33.0137 9.472 32.911 8.592 32.7057C7.74133 32.5003 7.096 32.2803 6.656 32.0457L5.996 31.7377C4.11867 32.383 2.28533 32.7057 0.496 32.7057C0.32 32.559 0.232 31.855 0.232 30.5937C0.232 29.303 1.05333 25.079 2.696 17.9217C4.33867 10.735 5.16 5.82166 5.16 3.18166C5.16 2.71232 5.08667 2.11099 4.94 1.37766C7.228 0.585656 9.41333 0.189656 11.496 0.189656C11.6427 0.600322 11.716 1.12832 11.716 1.77366ZM11.32 16.7337C10.7627 16.7337 9.92667 16.9977 8.812 17.5257C7.46267 23.2163 6.72933 27.2937 6.612 29.7577C7.492 30.139 8.328 30.3297 9.12 30.3297C10.2347 30.3297 11.1587 29.303 11.892 27.2497C12.6547 25.1963 13.036 22.9377 13.036 20.4737C13.036 17.9803 12.464 16.7337 11.32 16.7337ZM21.8126 29.1857C21.8126 27.9243 22.194 25.783 22.9566 22.7617C23.7193 19.711 24.1006 17.8483 24.1006 17.1737C24.1006 16.4697 23.5726 15.5457 22.5166 14.4017L22.5606 13.8297C24.5553 13.419 27.1806 13.2137 30.4366 13.2137C30.5833 13.595 30.6566 14.2843 30.6566 15.2817C30.6566 16.279 30.246 18.4057 29.4246 21.6617C28.6033 24.9177 28.1926 26.9417 28.1926 27.7337C28.1926 28.5257 28.486 28.9217 29.0726 28.9217C29.9233 28.9217 30.906 28.6137 32.0206 27.9977C32.138 27.2937 32.4313 25.9443 32.9006 23.9497C33.9566 19.2563 34.4846 15.8977 34.4846 13.8737C35.5113 13.463 37.3593 13.2577 40.0286 13.2577H40.8646C40.8646 14.6363 40.454 17.335 39.6326 21.3537C38.8113 25.343 38.4006 27.6897 38.4006 28.3937C38.4006 29.0683 38.5473 29.4057 38.8406 29.4057C39.0166 29.4057 39.8526 29.0537 41.3486 28.3497L42.1846 29.7577C39.574 31.9283 37.286 33.0137 35.3206 33.0137C34.382 33.0137 33.5753 32.7497 32.9006 32.2217C32.2553 31.6937 31.8886 31.0043 31.8006 30.1537C29.4246 32.0897 27.2686 33.0577 25.3326 33.0577C24.306 33.0577 23.4553 32.7203 22.7806 32.0457C22.1353 31.371 21.8126 30.4177 21.8126 29.1857ZM44.2977 32.6177H43.9897C43.931 32.383 43.9017 31.855 43.9017 31.0337C43.9017 30.183 44.2977 27.9243 45.0897 24.2577C45.8817 20.591 46.2777 18.4937 46.2777 17.9657C46.2777 17.0563 45.867 16.059 45.0457 14.9737L44.6497 14.4457L44.6937 13.8737C46.2777 13.4337 48.815 13.2137 52.3057 13.2137C52.6577 13.9763 52.8337 15.047 52.8337 16.4257C53.1563 15.8977 53.831 15.1937 54.8577 14.3137C55.8843 13.4337 56.9403 12.9937 58.0257 12.9937C59.6097 12.9937 60.4017 14.3723 60.4017 17.1297C60.255 17.3057 60.0497 17.5403 59.7857 17.8337C59.551 18.0977 59.0523 18.479 58.2897 18.9777C57.5563 19.4763 56.8377 19.7843 56.1337 19.9017C56.1043 19.9017 55.855 19.5057 55.3857 18.7137C54.9163 17.9217 54.5643 17.5257 54.3297 17.5257C53.5963 17.7897 52.951 18.2297 52.3937 18.8457C51.0443 24.9177 50.3697 28.8483 50.3697 30.6377C50.3697 31.283 50.3843 31.7377 50.4137 32.0017C49.387 32.4123 47.3483 32.6177 44.2977 32.6177ZM72.557 14.2697C72.6157 14.211 72.777 13.8297 73.041 13.1257C74.4197 13.1257 76.2677 13.5363 78.585 14.3577C77.8517 16.7923 77.265 19.3443 76.825 22.0137C76.385 24.6537 76.165 26.5457 76.165 27.6897C76.165 28.8043 76.2823 29.3617 76.517 29.3617C76.693 29.3617 77.3383 29.083 78.453 28.5257L78.981 28.2617L79.773 29.8017C79.509 30.0363 79.157 30.3297 78.717 30.6817C78.3063 31.0337 77.5143 31.5177 76.341 32.1337C75.1677 32.7203 74.1117 33.0137 73.173 33.0137C71.3543 33.0137 70.2983 32.1923 70.005 30.5497C68.1277 32.1923 66.4263 33.0137 64.901 33.0137C63.405 33.0137 62.129 32.427 61.073 31.2537C60.0463 30.0803 59.533 28.2323 59.533 25.7097C59.533 21.779 60.3397 18.6843 61.953 16.4257C63.5663 14.1377 65.517 12.9937 67.805 12.9937C69.4477 12.9937 71.0317 13.419 72.557 14.2697ZM67.541 29.2737C68.245 29.2737 69.037 28.995 69.917 28.4377C70.1223 24.3017 70.8117 20.2097 71.985 16.1617C71.105 15.7803 70.357 15.5897 69.741 15.5897C68.685 15.5897 67.7757 16.631 67.013 18.7137C66.2797 20.767 65.913 23.0403 65.913 25.5337C65.913 28.027 66.4557 29.2737 67.541 29.2737ZM89.7376 42.3417C89.5616 41.9897 89.4736 41.2563 89.4736 40.1417C89.4736 39.027 89.987 35.903 91.0136 30.7697C89.1656 32.2657 87.4643 33.0137 85.9096 33.0137C84.355 33.0137 83.0936 32.3977 82.1256 31.1657C81.1576 29.9337 80.6736 28.1003 80.6736 25.6657C80.6736 21.5883 81.495 18.4643 83.1376 16.2937C84.7803 14.0937 86.7456 12.9937 89.0336 12.9937C90.2656 12.9937 91.747 13.331 93.4776 14.0057C94.9443 13.4777 96.8216 13.2137 99.1096 13.2137C99.1976 13.7417 99.2416 14.343 99.2416 15.0177C99.2416 18.215 98.6696 22.6883 97.5256 28.4377C96.411 34.187 95.8536 38.4257 95.8536 41.1537C94.2696 41.799 92.231 42.195 89.7376 42.3417ZM90.9696 15.5897C89.855 15.5897 88.9163 16.5723 88.1536 18.5377C87.4203 20.4737 87.0536 22.747 87.0536 25.3577C87.0536 27.9683 87.611 29.2737 88.7256 29.2737C89.723 29.2737 90.6616 28.8923 91.5416 28.1297C92.539 23.0843 93.0376 19.0657 93.0376 16.0737C92.2163 15.751 91.527 15.5897 90.9696 15.5897ZM101.563 29.1857C101.563 27.9243 101.944 25.783 102.707 22.7617C103.469 19.711 103.851 17.8483 103.851 17.1737C103.851 16.4697 103.323 15.5457 102.267 14.4017L102.311 13.8297C104.305 13.419 106.931 13.2137 110.187 13.2137C110.333 13.595 110.407 14.2843 110.407 15.2817C110.407 16.279 109.996 18.4057 109.175 21.6617C108.353 24.9177 107.943 26.9417 107.943 27.7337C107.943 28.5257 108.236 28.9217 108.823 28.9217C109.673 28.9217 110.656 28.6137 111.771 27.9977C111.888 27.2937 112.181 25.9443 112.651 23.9497C113.707 19.2563 114.235 15.8977 114.235 13.8737C115.261 13.463 117.109 13.2577 119.779 13.2577H120.615C120.615 14.6363 120.204 17.335 119.383 21.3537C118.561 25.343 118.151 27.6897 118.151 28.3937C118.151 29.0683 118.297 29.4057 118.591 29.4057C118.767 29.4057 119.603 29.0537 121.099 28.3497L121.935 29.7577C119.324 31.9283 117.036 33.0137 115.071 33.0137C114.132 33.0137 113.325 32.7497 112.651 32.2217C112.005 31.6937 111.639 31.0043 111.551 30.1537C109.175 32.0897 107.019 33.0577 105.083 33.0577C104.056 33.0577 103.205 32.7203 102.531 32.0457C101.885 31.371 101.563 30.4177 101.563 29.1857ZM122.992 24.8737C122.992 21.207 124.092 18.3177 126.292 16.2057C128.521 14.0643 131.044 12.9937 133.86 12.9937C135.59 12.9937 137.013 13.419 138.128 14.2697C139.242 15.1203 139.8 16.2643 139.8 17.7017C139.8 19.1097 139.433 20.2977 138.7 21.2657C137.996 22.2337 137.13 22.9817 136.104 23.5097C134.021 24.5363 132.114 25.1817 130.384 25.4457L129.328 25.5777C129.533 28.335 130.662 29.7137 132.716 29.7137C133.42 29.7137 134.168 29.5377 134.96 29.1857C135.752 28.8337 136.368 28.4817 136.808 28.1297L137.468 27.6017L138.524 29.0097C138.289 29.3323 137.82 29.7577 137.116 30.2857C136.412 30.8137 135.752 31.2537 135.136 31.6057C133.434 32.5443 131.572 33.0137 129.548 33.0137C127.524 33.0137 125.925 32.295 124.752 30.8577C123.578 29.4203 122.992 27.4257 122.992 24.8737ZM129.284 23.4217C130.78 23.1577 131.968 22.527 132.848 21.5297C133.728 20.5323 134.168 19.2417 134.168 17.6577C134.168 16.0737 133.698 15.2817 132.76 15.2817C131.645 15.2817 130.78 16.235 130.164 18.1417C129.577 20.019 129.284 21.779 129.284 23.4217ZM149.85 15.7217C149.85 16.9537 149.454 19.0803 148.662 22.1017C147.87 25.0937 147.474 27.059 147.474 27.9977C147.474 28.907 147.606 29.3617 147.87 29.3617C148.046 29.3617 148.721 29.083 149.894 28.5257L150.422 28.2617L151.17 29.8017C150.906 30.0363 150.554 30.3297 150.114 30.6817C149.674 31.0337 148.853 31.5177 147.65 32.1337C146.447 32.7203 145.333 33.0137 144.306 33.0137C143.279 33.0137 142.473 32.7057 141.886 32.0897C141.299 31.4443 141.006 30.5937 141.006 29.5377C141.006 28.4523 141.373 26.5457 142.106 23.8177C142.839 21.0603 143.206 19.271 143.206 18.4497C143.206 17.2177 142.825 16.059 142.062 14.9737L141.666 14.4457L141.71 13.8737C143.265 13.4337 145.787 13.2137 149.278 13.2137C149.659 13.6537 149.85 14.4897 149.85 15.7217ZM144.834 8.41765C144.247 7.83099 143.954 7.05366 143.954 6.08566C143.954 5.11766 144.35 4.26699 145.142 3.53365C145.963 2.80032 146.902 2.43366 147.958 2.43366C149.014 2.43366 149.835 2.72699 150.422 3.31365C151.009 3.90032 151.302 4.67766 151.302 5.64566C151.302 6.58432 150.877 7.42032 150.026 8.15366C149.205 8.88699 148.281 9.25366 147.254 9.25366C146.227 9.25366 145.421 8.97499 144.834 8.41765ZM153.61 32.6177H153.302C153.243 32.383 153.214 31.855 153.214 31.0337C153.214 30.183 153.61 27.9243 154.402 24.2577C155.194 20.591 155.59 18.4937 155.59 17.9657C155.59 17.0563 155.179 16.059 154.358 14.9737L153.962 14.4457L154.006 13.8737C155.59 13.4337 158.127 13.2137 161.618 13.2137C161.97 13.9763 162.146 15.047 162.146 16.4257C162.469 15.8977 163.143 15.1937 164.17 14.3137C165.197 13.4337 166.253 12.9937 167.338 12.9937C168.922 12.9937 169.714 14.3723 169.714 17.1297C169.567 17.3057 169.362 17.5403 169.098 17.8337C168.863 18.0977 168.365 18.479 167.602 18.9777C166.869 19.4763 166.15 19.7843 165.446 19.9017C165.417 19.9017 165.167 19.5057 164.698 18.7137C164.229 17.9217 163.877 17.5257 163.642 17.5257C162.909 17.7897 162.263 18.2297 161.706 18.8457C160.357 24.9177 159.682 28.8483 159.682 30.6377C159.682 31.283 159.697 31.7377 159.726 32.0017C158.699 32.4123 156.661 32.6177 153.61 32.6177ZM181.87 14.2697C181.928 14.211 182.09 13.8297 182.354 13.1257C183.732 13.1257 185.58 13.5363 187.898 14.3577C187.164 16.7923 186.578 19.3443 186.138 22.0137C185.698 24.6537 185.478 26.5457 185.478 27.6897C185.478 28.8043 185.595 29.3617 185.83 29.3617C186.006 29.3617 186.651 29.083 187.766 28.5257L188.294 28.2617L189.086 29.8017C188.822 30.0363 188.47 30.3297 188.03 30.6817C187.619 31.0337 186.827 31.5177 185.654 32.1337C184.48 32.7203 183.424 33.0137 182.486 33.0137C180.667 33.0137 179.611 32.1923 179.318 30.5497C177.44 32.1923 175.739 33.0137 174.214 33.0137C172.718 33.0137 171.442 32.427 170.386 31.2537C169.359 30.0803 168.846 28.2323 168.846 25.7097C168.846 21.779 169.652 18.6843 171.266 16.4257C172.879 14.1377 174.83 12.9937 177.118 12.9937C178.76 12.9937 180.344 13.419 181.87 14.2697ZM176.854 29.2737C177.558 29.2737 178.35 28.995 179.23 28.4377C179.435 24.3017 180.124 20.2097 181.298 16.1617C180.418 15.7803 179.67 15.5897 179.053 15.5897C177.998 15.5897 177.088 16.631 176.326 18.7137C175.592 20.767 175.226 23.0403 175.226 25.5337C175.226 28.027 175.768 29.2737 176.854 29.2737Z" fill="#9C100E"/>
</svg>
